<svg xmlns="http://www.w3.org/2000/svg" width="400" height="200" viewBox="0 0 400 200">
  <defs>
    <linearGradient id="grad6" x1="0%" y1="0%" x2="100%" y2="100%">
      <stop offset="0%" stop-color="#2196f3" stop-opacity="0.9"/>
      <stop offset="100%" stop-color="#03a9f4" stop-opacity="0.6"/>
    </linearGradient>
    <pattern id="pattern6" x="0" y="0" width="20" height="20" patternUnits="userSpaceOnUse">
      <circle cx="10" cy="10" r="2" fill="white" opacity="0.2"/>
    </pattern>
  </defs>
  <rect width="400" height="200" fill="#f5f5f5"/>
  <rect x="0" y="0" width="400" height="200" fill="url(#grad6)" opacity="0.8"/>
  <rect x="0" y="0" width="400" height="200" fill="url(#pattern6)"/>
  
  <!-- Abstract shapes -->
  <path d="M0,100 Q100,50 200,120 T400,80" stroke="white" stroke-width="3" fill="none" opacity="0.5"/>
  <path d="M0,150 Q100,180 200,130 T400,160" stroke="white" stroke-width="2" fill="none" opacity="0.4"/>
  
  <!-- Floating circles -->
  <circle cx="80" cy="60" r="20" fill="white" opacity="0.2"/>
  <circle cx="320" cy="140" r="30" fill="white" opacity="0.2"/>
  <circle cx="200" cy="40" r="15" fill="white" opacity="0.3"/>
  <circle cx="260" cy="100" r="10" fill="white" opacity="0.3"/>
  <circle cx="120" cy="130" r="25" fill="white" opacity="0.2"/>
  
  <!-- Center area for text -->
  <rect x="120" y="80" width="160" height="40" fill="white" opacity="0.3" rx="10" ry="10"/>
</svg>